STARTFONT 2.1
COMMENT
COMMENT Converted from OpenType font "Q:\font stuff\winfont\OrbonITCStd.otf" by "otf2bdf 3.0".
COMMENT
FONT -FreeType-Orbon ITC Std-Medium-R-Normal--32-320-72-72-P-84-ISO10646-1
SIZE 32 72 72
FONTBOUNDINGBOX 32 36 -4 -8
STARTPROPERTIES 19
FOUNDRY "FreeType"
FAMILY_NAME "Orbon ITC Std"
WEIGHT_NAME "Medium"
SLANT "R"
SETWIDTH_NAME "Normal"
ADD_STYLE_NAME ""
PIXEL_SIZE 32
POINT_SIZE 320
RESOLUTION_X 72
RESOLUTION_Y 72
SPACING "P"
AVERAGE_WIDTH 84
CHARSET_REGISTRY "ISO10646"
CHARSET_ENCODING "1"
FONT_ASCENT 21
FONT_DESCENT 6
COPYRIGHT "Copyright 1997 International Typeface Corporation. All rights reserved."
_OTF_FONTFILE "Q:\font stuff\winfont\OrbonITCStd.otf"
_OTF_PSNAME "OrbonITCStd"
ENDPROPERTIES
CHARS 252
STARTCHAR 0020
ENCODING 32
SWIDTH 156 0
DWIDTH 5 0
BBX 0 0 0 0
BITMAP
ENDCHAR
STARTCHAR 0021
ENCODING 33
SWIDTH 125 0
DWIDTH 4 0
BBX 3 22 1 0
BITMAP
E0
E0
E0
E0
E0
E0
E0
E0
E0
E0
E0
E0
E0
E0
E0
E0
00
40
40
E0
40
40
ENDCHAR
STARTCHAR 0022
ENCODING 34
SWIDTH 218 0
DWIDTH 7 0
BBX 5 5 1 18
BITMAP
D8
D8
98
90
90
ENDCHAR
STARTCHAR 0023
ENCODING 35
SWIDTH 343 0
DWIDTH 11 0
BBX 10 14 0 8
BITMAP
1180
1100
1100
FFC0
FFC0
3300
3300
3300
FFC0
FFC0
2300
2200
2200
2200
ENDCHAR
STARTCHAR 0024
ENCODING 36
SWIDTH 250 0
DWIDTH 8 0
BBX 7 22 1 0
BITMAP
30
30
30
7E
FE
C0
C0
C0
C0
FC
7E
06
06
06
C6
C6
C4
6C
78
30
30
30
ENDCHAR
STARTCHAR 0025
ENCODING 37
SWIDTH 656 0
DWIDTH 21 0
BBX 18 22 1 0
BITMAP
7C0600
EE0400
C60C00
C60800
C61800
C61000
C63000
C62000
C66000
C64000
6CCF80
7C98C0
3998C0
0118C0
0318C0
0218C0
0618C0
0418C0
0418C0
080C80
080F80
100700
ENDCHAR
STARTCHAR 0026
ENCODING 38
SWIDTH 343 0
DWIDTH 11 0
BBX 10 23 1 -1
BITMAP
7E00
7F00
C300
C300
C300
C000
C000
C000
C000
7FC0
7FC0
C300
C300
C300
C300
C300
C300
C300
C300
6300
6600
3C00
1800
ENDCHAR
STARTCHAR 0027
ENCODING 39
SWIDTH 93 0
DWIDTH 3 0
BBX 2 5 1 18
BITMAP
C0
C0
C0
80
80
ENDCHAR
STARTCHAR 0028
ENCODING 40
SWIDTH 187 0
DWIDTH 6 0
BBX 4 22 1 0
BITMAP
10
20
20
60
40
40
C0
C0
C0
C0
C0
C0
C0
C0
C0
C0
40
40
60
20
20
10
ENDCHAR
STARTCHAR 0029
ENCODING 41
SWIDTH 187 0
DWIDTH 6 0
BBX 4 22 1 0
BITMAP
80
40
40
60
20
20
30
30
30
30
30
30
30
30
30
30
20
20
60
40
40
80
ENDCHAR
STARTCHAR 002A
ENCODING 42
SWIDTH 281 0
DWIDTH 9 0
BBX 7 7 1 15
BITMAP
30
10
D4
FE
20
6C
48
ENDCHAR
STARTCHAR 002B
ENCODING 43
SWIDTH 843 0
DWIDTH 27 0
BBX 19 19 4 0
BITMAP
004000
004000
004000
004000
004000
004000
004000
004000
004000
FFFFE0
004000
004000
004000
004000
004000
004000
004000
004000
004000
ENDCHAR
STARTCHAR 002C
ENCODING 44
SWIDTH 125 0
DWIDTH 4 0
BBX 2 5 1 -3
BITMAP
C0
C0
C0
80
80
ENDCHAR
STARTCHAR 002D
ENCODING 45
SWIDTH 187 0
DWIDTH 6 0
BBX 4 2 1 7
BITMAP
F0
F0
ENDCHAR
STARTCHAR 002E
ENCODING 46
SWIDTH 125 0
DWIDTH 4 0
BBX 3 5 1 0
BITMAP
40
40
E0
40
40
ENDCHAR
STARTCHAR 002F
ENCODING 47
SWIDTH 343 0
DWIDTH 11 0
BBX 9 25 1 -2
BITMAP
0180
0180
0100
0300
0300
0200
0200
0600
0400
0400
0C00
0C00
0800
1800
1800
1000
1000
3000
2000
2000
6000
6000
4000
C000
C000
ENDCHAR
STARTCHAR 0030
ENCODING 48
SWIDTH 343 0
DWIDTH 11 0
BBX 8 22 1 0
BITMAP
7E
7F
C3
C3
C3
C3
C3
C3
C3
C3
C3
C3
C3
C3
C3
C3
C3
C3
63
66
3E
1C
ENDCHAR
STARTCHAR 0031
ENCODING 49
SWIDTH 218 0
DWIDTH 7 0
BBX 4 22 1 0
BITMAP
F0
F0
30
30
30
30
30
30
30
30
30
30
30
30
30
30
30
30
30
30
30
30
ENDCHAR
STARTCHAR 0032
ENCODING 50
SWIDTH 312 0
DWIDTH 10 0
BBX 8 22 1 0
BITMAP
7E
FF
C3
C3
C3
C3
C3
03
06
06
0C
18
18
30
70
60
C0
C0
C0
C0
FF
FF
ENDCHAR
STARTCHAR 0033
ENCODING 51
SWIDTH 312 0
DWIDTH 10 0
BBX 8 22 1 0
BITMAP
7E
7F
C3
C3
C3
03
03
03
03
3E
3E
03
03
03
03
C3
C3
C3
62
66
3C
18
ENDCHAR
STARTCHAR 0034
ENCODING 52
SWIDTH 312 0
DWIDTH 10 0
BBX 9 22 1 0
BITMAP
C600
C600
C600
C600
C600
C600
C600
C600
C600
C600
C600
C600
C600
C600
FF80
7F80
0600
0600
0600
0600
0600
0600
ENDCHAR
STARTCHAR 0035
ENCODING 53
SWIDTH 312 0
DWIDTH 10 0
BBX 8 22 1 0
BITMAP
FF
FF
C0
C0
C0
C0
C0
C0
C0
FE
FF
03
03
03
C3
C3
C3
C3
63
66
3E
1C
ENDCHAR
STARTCHAR 0036
ENCODING 54
SWIDTH 312 0
DWIDTH 10 0
BBX 8 22 1 0
BITMAP
7E
FF
C3
C3
C3
C3
C0
C0
C0
FE
FF
C3
C3
C3
C3
C3
C3
C3
42
66
7C
38
ENDCHAR
STARTCHAR 0037
ENCODING 55
SWIDTH 312 0
DWIDTH 10 0
BBX 8 22 1 0
BITMAP
FF
FF
03
03
03
02
06
06
06
04
0C
0C
0C
0C
18
18
18
18
30
30
30
30
ENDCHAR
STARTCHAR 0038
ENCODING 56
SWIDTH 312 0
DWIDTH 10 0
BBX 8 22 1 0
BITMAP
7E
7F
C3
C3
C3
C3
C3
C3
C3
7E
7E
C3
C3
C3
C3
C3
C3
C3
63
66
3E
1C
ENDCHAR
STARTCHAR 0039
ENCODING 57
SWIDTH 312 0
DWIDTH 10 0
BBX 8 22 1 0
BITMAP
7E
7F
C3
C3
C3
C3
C3
C3
C3
C3
7F
3F
03
03
03
C3
C3
C3
63
66
3E
1C
ENDCHAR
STARTCHAR 003A
ENCODING 58
SWIDTH 125 0
DWIDTH 4 0
BBX 3 15 0 0
BITMAP
40
40
E0
40
40
00
00
00
00
00
40
40
E0
40
40
ENDCHAR
STARTCHAR 003B
ENCODING 59
SWIDTH 125 0
DWIDTH 4 0
BBX 3 18 0 -3
BITMAP
40
40
E0
40
40
00
00
00
00
00
00
00
E0
C0
C0
80
80
80
ENDCHAR
STARTCHAR 003C
ENCODING 60
SWIDTH 843 0
DWIDTH 27 0
BBX 18 16 4 2
BITMAP
000040
0003C0
000E00
003800
01E000
070000
3C0000
E00000
E00000
3C0000
070000
01C000
003800
000E00
0003C0
000040
ENDCHAR
STARTCHAR 003D
ENCODING 61
SWIDTH 843 0
DWIDTH 27 0
BBX 18 7 4 6
BITMAP
FFFFC0
000000
000000
000000
000000
000000
FFFFC0
ENDCHAR
STARTCHAR 003E
ENCODING 62
SWIDTH 843 0
DWIDTH 27 0
BBX 18 16 4 2
BITMAP
800000
F00000
1C0000
070000
01E000
003800
000F00
0001C0
0001C0
000F00
003800
00E000
070000
1C0000
F00000
800000
ENDCHAR
STARTCHAR 003F
ENCODING 63
SWIDTH 312 0
DWIDTH 10 0
BBX 8 22 1 0
BITMAP
7E
FF
C3
C3
C3
C3
03
03
03
1F
3E
38
38
38
38
38
00
10
10
38
10
10
ENDCHAR
STARTCHAR 0040
ENCODING 64
SWIDTH 468 0
DWIDTH 15 0
BBX 13 19 1 -2
BITMAP
3FF8
6008
C008
8FC8
9FC8
98C8
98C8
98C8
98C8
98C8
98C8
98C8
8DE8
CFF8
4718
6000
3000
1E00
0600
ENDCHAR
STARTCHAR 0041
ENCODING 65
SWIDTH 312 0
DWIDTH 10 0
BBX 8 22 1 0
BITMAP
7E
FF
C3
C3
C3
C3
C3
C3
C3
C3
C3
C3
FF
FF
C3
C3
C3
C3
C3
C3
C3
C3
ENDCHAR
STARTCHAR 0042
ENCODING 66
SWIDTH 312 0
DWIDTH 10 0
BBX 8 22 1 0
BITMAP
FE
FF
C3
C3
C3
C3
C3
C3
C3
FE
FE
C3
C3
C3
C3
C3
C3
C3
62
66
3C
18
ENDCHAR
STARTCHAR 0043
ENCODING 67
SWIDTH 312 0
DWIDTH 10 0
BBX 8 22 1 0
BITMAP
7E
FF
C3
C3
C3
C3
C0
C0
C0
C0
C0
C0
C0
C3
C3
C3
C3
C3
63
66
3E
1C
ENDCHAR
STARTCHAR 0044
ENCODING 68
SWIDTH 312 0
DWIDTH 10 0
BBX 8 22 1 0
BITMAP
FE
FF
C3
C3
C3
C3
C3
C3
C3
C3
C3
C3
C3
C3
C3
C3
C3
C3
63
66
3E
1C
ENDCHAR
STARTCHAR 0045
ENCODING 69
SWIDTH 250 0
DWIDTH 8 0
BBX 6 22 1 0
BITMAP
7C
7C
C0
C0
C0
C0
C0
C0
C0
FC
FC
C0
C0
C0
C0
C0
C0
C0
C0
C0
FC
7C
ENDCHAR
STARTCHAR 0046
ENCODING 70
SWIDTH 250 0
DWIDTH 8 0
BBX 6 22 1 0
BITMAP
7C
FC
C0
C0
C0
C0
C0
C0
C0
FC
FC
C0
C0
C0
C0
C0
C0
C0
C0
C0
C0
C0
ENDCHAR
STARTCHAR 0047
ENCODING 71
SWIDTH 312 0
DWIDTH 10 0
BBX 8 22 1 0
BITMAP
7E
7F
C3
C3
C3
C3
C0
C0
C0
C0
C0
CF
CF
C3
C3
C3
C3
C3
63
66
3E
1C
ENDCHAR
STARTCHAR 0048
ENCODING 72
SWIDTH 312 0
DWIDTH 10 0
BBX 8 22 1 0
BITMAP
C3
C3
C3
C3
C3
C3
C3
C3
C3
FF
FF
C3
C3
C3
C3
C3
C3
C3
C3
C3
C3
C3
ENDCHAR
STARTCHAR 0049
ENCODING 73
SWIDTH 125 0
DWIDTH 4 0
BBX 2 22 1 0
BITMAP
C0
C0
C0
C0
C0
C0
C0
C0
C0
C0
C0
C0
C0
C0
C0
C0
C0
C0
C0
C0
C0
C0
ENDCHAR
STARTCHAR 004A
ENCODING 74
SWIDTH 125 0
DWIDTH 4 0
BBX 4 26 -1 -4
BITMAP
30
30
30
30
30
30
30
30
30
30
30
30
30
30
30
30
30
30
30
30
30
30
30
60
E0
40
ENDCHAR
STARTCHAR 004B
ENCODING 75
SWIDTH 312 0
DWIDTH 10 0
BBX 7 22 1 0
BITMAP
C6
C6
C6
C6
C6
C6
C6
C6
C6
EC
F8
D8
CE
C6
C6
C6
C6
C6
C6
C6
C6
C6
ENDCHAR
STARTCHAR 004C
ENCODING 76
SWIDTH 250 0
DWIDTH 8 0
BBX 6 22 1 0
BITMAP
C0
C0
C0
C0
C0
C0
C0
C0
C0
C0
C0
C0
C0
C0
C0
C0
C0
C0
C0
C0
FC
7C
ENDCHAR
STARTCHAR 004D
ENCODING 77
SWIDTH 437 0
DWIDTH 14 0
BBX 12 22 1 0
BITMAP
C030
E070
F0F0
D9B0
CF30
C730
C630
C630
C630
C630
C630
C630
C630
C630
C630
C630
C630
C630
C630
C630
C630
C630
ENDCHAR
STARTCHAR 004E
ENCODING 78
SWIDTH 312 0
DWIDTH 10 0
BBX 8 22 1 0
BITMAP
C3
E3
E3
F3
D3
DB
CB
CF
CF
C7
C7
C3
C3
C3
C3
C3
C3
C3
C3
C3
C3
C3
ENDCHAR
STARTCHAR 004F
ENCODING 79
SWIDTH 312 0
DWIDTH 10 0
BBX 8 22 1 0
BITMAP
7E
7F
C3
C3
C3
C3
C3
C3
C3
C3
C3
C3
C3
C3
C3
C3
C3
C3
63
66
3E
1C
ENDCHAR
STARTCHAR 0050
ENCODING 80
SWIDTH 281 0
DWIDTH 9 0
BBX 8 22 1 0
BITMAP
FE
FF
C3
C3
C3
C3
C3
C3
C3
C3
C6
CE
FC
F0
C0
C0
C0
C0
C0
C0
C0
C0
ENDCHAR
STARTCHAR 0051
ENCODING 81
SWIDTH 312 0
DWIDTH 10 0
BBX 8 26 1 -4
BITMAP
7E
7F
C3
C3
C3
C3
C3
C3
C3
C3
C3
C3
C3
C3
C3
C3
C3
C3
E3
66
7E
3C
18
18
18
18
ENDCHAR
STARTCHAR 0052
ENCODING 82
SWIDTH 312 0
DWIDTH 10 0
BBX 8 22 1 0
BITMAP
FE
FF
C3
C3
C3
C3
C3
C3
C3
C7
FE
FC
CE
C7
C3
C3
C3
C3
C3
C3
C3
C3
ENDCHAR
STARTCHAR 0053
ENCODING 83
SWIDTH 312 0
DWIDTH 10 0
BBX 8 22 1 0
BITMAP
7E
7F
C3
C3
C3
C3
C0
C0
C0
FE
7F
03
03
03
C3
C3
C3
C3
63
66
3E
1C
ENDCHAR
STARTCHAR 0054
ENCODING 84
SWIDTH 250 0
DWIDTH 8 0
BBX 8 22 0 0
BITMAP
FF
FF
18
18
18
18
18
18
18
18
18
18
18
18
18
18
18
18
18
18
18
18
ENDCHAR
STARTCHAR 0055
ENCODING 85
SWIDTH 312 0
DWIDTH 10 0
BBX 8 22 1 0
BITMAP
C3
C3
C3
C3
C3
C3
C3
C3
C3
C3
C3
C3
C3
C3
C3
C3
C3
C3
C3
C3
7F
7F
ENDCHAR
STARTCHAR 0056
ENCODING 86
SWIDTH 312 0
DWIDTH 10 0
BBX 8 22 1 0
BITMAP
C3
C3
C3
C3
C3
C3
C3
C3
C3
C3
C3
C3
C3
C3
C3
C3
C3
C3
63
66
3E
1C
ENDCHAR
STARTCHAR 0057
ENCODING 87
SWIDTH 468 0
DWIDTH 15 0
BBX 13 22 1 0
BITMAP
C618
C618
C618
C618
C618
C618
C618
C618
C618
C618
C618
C618
C618
C618
C618
C618
C618
C618
C730
6F30
7DE0
38E0
ENDCHAR
STARTCHAR 0058
ENCODING 88
SWIDTH 312 0
DWIDTH 10 0
BBX 8 22 1 0
BITMAP
C3
C3
C3
C3
C3
C3
C3
C6
E6
7C
1C
3E
37
63
E3
C3
C3
C3
C3
C3
C3
C3
ENDCHAR
STARTCHAR 0059
ENCODING 89
SWIDTH 312 0
DWIDTH 10 0
BBX 8 22 1 0
BITMAP
C3
C3
C3
C3
C3
C3
C3
C3
C3
C3
C3
C3
C3
63
66
3C
18
18
18
18
18
18
ENDCHAR
STARTCHAR 005A
ENCODING 90
SWIDTH 312 0
DWIDTH 10 0
BBX 8 22 1 0
BITMAP
FF
FF
03
03
06
06
06
0C
0C
18
18
18
30
30
60
60
60
C0
C0
C0
FF
FF
ENDCHAR
STARTCHAR 005B
ENCODING 91
SWIDTH 156 0
DWIDTH 5 0
BBX 3 26 1 -2
BITMAP
E0
C0
C0
C0
C0
C0
C0
C0
C0
C0
C0
C0
C0
C0
C0
C0
C0
C0
C0
C0
C0
C0
C0
C0
C0
E0
ENDCHAR
STARTCHAR 005C
ENCODING 92
SWIDTH 343 0
DWIDTH 11 0
BBX 9 25 1 -2
BITMAP
C000
C000
4000
6000
6000
2000
2000
3000
1000
1000
1800
1800
0800
0C00
0C00
0400
0400
0600
0200
0200
0300
0300
0100
0180
0180
ENDCHAR
STARTCHAR 005D
ENCODING 93
SWIDTH 156 0
DWIDTH 5 0
BBX 3 26 1 -2
BITMAP
E0
60
60
60
60
60
60
60
60
60
60
60
60
60
60
60
60
60
60
60
60
60
60
60
60
E0
ENDCHAR
STARTCHAR 005E
ENCODING 94
SWIDTH 250 0
DWIDTH 8 0
BBX 6 3 1 18
BITMAP
20
78
CC
ENDCHAR
STARTCHAR 005F
ENCODING 95
SWIDTH 500 0
DWIDTH 16 0
BBX 16 1 0 -3
BITMAP
FFFF
ENDCHAR
STARTCHAR 0060
ENCODING 96
SWIDTH 500 0
DWIDTH 16 0
BBX 4 4 5 16
BITMAP
E0
60
30
10
ENDCHAR
STARTCHAR 0061
ENCODING 97
SWIDTH 281 0
DWIDTH 9 0
BBX 7 15 1 0
BITMAP
FC
FE
06
06
06
7E
FE
C6
C6
C6
C6
C6
6C
7C
38
ENDCHAR
STARTCHAR 0062
ENCODING 98
SWIDTH 281 0
DWIDTH 9 0
BBX 7 22 1 0
BITMAP
C0
C0
C0
C0
C0
C0
C0
FC
FE
C6
C6
C6
C6
C6
C6
C6
C6
C6
C6
6C
7C
38
ENDCHAR
STARTCHAR 0063
ENCODING 99
SWIDTH 281 0
DWIDTH 9 0
BBX 7 15 1 0
BITMAP
7C
FE
C6
C6
C0
C0
C0
C0
C0
C6
C6
C6
6C
7C
38
ENDCHAR
STARTCHAR 0064
ENCODING 100
SWIDTH 281 0
DWIDTH 9 0
BBX 7 22 1 0
BITMAP
06
06
06
06
06
06
06
7E
FE
C6
C6
C6
C6
C6
C6
C6
C6
C6
C6
6C
7C
38
ENDCHAR
STARTCHAR 0065
ENCODING 101
SWIDTH 281 0
DWIDTH 9 0
BBX 7 15 1 0
BITMAP
7C
FE
C6
C6
C6
FE
FE
C0
C0
C6
C6
C6
6C
7C
38
ENDCHAR
STARTCHAR 0066
ENCODING 102
SWIDTH 218 0
DWIDTH 7 0
BBX 6 23 0 0
BITMAP
08
18
38
30
30
30
30
30
FC
FC
30
30
30
30
30
30
30
30
30
30
30
30
30
ENDCHAR
STARTCHAR 0067
ENCODING 103
SWIDTH 312 0
DWIDTH 10 0
BBX 8 21 1 -6
BITMAP
7F
FF
C6
C6
C6
C6
C6
C6
6C
3C
38
40
40
FC
FF
03
C3
C3
E3
7E
3C
ENDCHAR
STARTCHAR 0068
ENCODING 104
SWIDTH 281 0
DWIDTH 9 0
BBX 7 22 1 0
BITMAP
C0
C0
C0
C0
C0
C0
C0
FC
FE
C6
C6
C6
C6
C6
C6
C6
C6
C6
C6
C6
C6
C6
ENDCHAR
STARTCHAR 0069
ENCODING 105
SWIDTH 125 0
DWIDTH 4 0
BBX 2 22 1 0
BITMAP
C0
C0
80
00
00
00
00
C0
C0
C0
C0
C0
C0
C0
C0
C0
C0
C0
C0
C0
C0
C0
ENDCHAR
STARTCHAR 006A
ENCODING 106
SWIDTH 156 0
DWIDTH 5 0
BBX 4 28 -1 -6
BITMAP
30
30
20
00
00
00
00
30
30
30
30
30
30
30
30
30
30
30
30
30
30
30
30
30
30
70
E0
40
ENDCHAR
STARTCHAR 006B
ENCODING 107
SWIDTH 281 0
DWIDTH 9 0
BBX 7 22 1 0
BITMAP
C0
C0
C0
C0
C0
C0
C0
C6
C6
C6
C6
C6
EC
F8
DC
CE
C6
C6
C6
C6
C6
C6
ENDCHAR
STARTCHAR 006C
ENCODING 108
SWIDTH 125 0
DWIDTH 4 0
BBX 2 22 1 0
BITMAP
C0
C0
C0
C0
C0
C0
C0
C0
C0
C0
C0
C0
C0
C0
C0
C0
C0
C0
C0
C0
C0
C0
ENDCHAR
STARTCHAR 006D
ENCODING 109
SWIDTH 406 0
DWIDTH 13 0
BBX 11 15 1 0
BITMAP
FFC0
FFE0
C660
C660
C660
C660
C660
C660
C660
C660
C660
C660
C660
C660
C660
ENDCHAR
STARTCHAR 006E
ENCODING 110
SWIDTH 281 0
DWIDTH 9 0
BBX 7 15 1 0
BITMAP
FC
FE
C6
C6
C6
C6
C6
C6
C6
C6
C6
C6
C6
C6
C6
ENDCHAR
STARTCHAR 006F
ENCODING 111
SWIDTH 281 0
DWIDTH 9 0
BBX 7 15 1 0
BITMAP
7C
FE
C6
C6
C6
C6
C6
C6
C6
C6
C6
C6
6C
7C
38
ENDCHAR
STARTCHAR 0070
ENCODING 112
SWIDTH 281 0
DWIDTH 9 0
BBX 7 21 1 -6
BITMAP
7C
FE
C6
C6
C6
C6
C6
C6
C6
C6
C6
C6
CC
F8
E0
C0
C0
C0
C0
C0
C0
ENDCHAR
STARTCHAR 0071
ENCODING 113
SWIDTH 281 0
DWIDTH 9 0
BBX 7 21 1 -6
BITMAP
7C
FE
C6
C6
C6
C6
C6
C6
C6
C6
C6
C6
66
3E
0E
06
06
06
06
06
06
ENDCHAR
STARTCHAR 0072
ENCODING 114
SWIDTH 218 0
DWIDTH 7 0
BBX 6 15 1 0
BITMAP
F8
FC
CC
CC
C0
C0
C0
C0
C0
C0
C0
C0
C0
C0
C0
ENDCHAR
STARTCHAR 0073
ENCODING 115
SWIDTH 281 0
DWIDTH 9 0
BBX 7 15 1 0
BITMAP
7E
FE
C0
C0
C0
FC
7E
06
06
06
C6
C6
6C
7C
38
ENDCHAR
STARTCHAR 0074
ENCODING 116
SWIDTH 218 0
DWIDTH 7 0
BBX 6 20 0 0
BITMAP
30
30
30
30
30
FC
FC
30
30
30
30
30
30
30
30
30
30
18
18
08
ENDCHAR
STARTCHAR 0075
ENCODING 117
SWIDTH 281 0
DWIDTH 9 0
BBX 7 15 1 0
BITMAP
C6
C6
C6
C6
C6
C6
C6
C6
C6
C6
C6
C6
C6
FE
7E
ENDCHAR
STARTCHAR 0076
ENCODING 118
SWIDTH 281 0
DWIDTH 9 0
BBX 7 15 1 0
BITMAP
C6
C6
C6
C6
C6
C6
C6
C6
C6
C6
C6
C6
6C
7C
38
ENDCHAR
STARTCHAR 0077
ENCODING 119
SWIDTH 406 0
DWIDTH 13 0
BBX 11 15 1 0
BITMAP
C660
C660
C660
C660
C660
C660
C660
C660
C660
C660
C660
C660
6E60
7FC0
3980
ENDCHAR
STARTCHAR 0078
ENCODING 120
SWIDTH 281 0
DWIDTH 9 0
BBX 7 15 1 0
BITMAP
C6
C6
C6
C6
C6
EC
78
3C
3E
66
C6
C6
C6
C6
C6
ENDCHAR
STARTCHAR 0079
ENCODING 121
SWIDTH 281 0
DWIDTH 9 0
BBX 7 21 1 -6
BITMAP
C6
C6
C6
C6
C6
C6
C6
C6
C6
C6
C6
C6
C6
FE
7E
06
06
06
06
06
06
ENDCHAR
STARTCHAR 007A
ENCODING 122
SWIDTH 250 0
DWIDTH 8 0
BBX 6 15 1 0
BITMAP
FC
FC
0C
0C
18
18
30
30
60
60
40
C0
C0
FC
FC
ENDCHAR
STARTCHAR 007B
ENCODING 123
SWIDTH 187 0
DWIDTH 6 0
BBX 5 26 0 -2
BITMAP
78
60
60
60
60
60
60
60
60
60
60
60
E0
60
60
60
60
60
60
60
60
60
60
60
60
78
ENDCHAR
STARTCHAR 007C
ENCODING 124
SWIDTH 187 0
DWIDTH 6 0
BBX 2 24 2 -2
BITMAP
C0
C0
C0
C0
C0
C0
C0
C0
C0
C0
C0
C0
C0
C0
C0
C0
C0
C0
C0
C0
C0
C0
C0
C0
ENDCHAR
STARTCHAR 007D
ENCODING 125
SWIDTH 187 0
DWIDTH 6 0
BBX 4 26 1 -2
BITMAP
E0
60
60
60
60
60
60
60
60
60
60
60
70
70
60
60
60
60
60
60
60
60
60
60
60
E0
ENDCHAR
STARTCHAR 007E
ENCODING 126
SWIDTH 843 0
DWIDTH 27 0
BBX 21 3 3 8
BITMAP
1F8008
707070
800FC0
ENDCHAR
STARTCHAR 00A0
ENCODING 160
SWIDTH 156 0
DWIDTH 5 0
BBX 0 0 0 0
BITMAP
ENDCHAR
STARTCHAR 00A1
ENCODING 161
SWIDTH 125 0
DWIDTH 4 0
BBX 3 23 1 -7
BITMAP
40
40
E0
40
40
00
E0
E0
E0
E0
E0
E0
E0
E0
E0
E0
E0
E0
E0
E0
E0
E0
E0
ENDCHAR
STARTCHAR 00A2
ENCODING 162
SWIDTH 281 0
DWIDTH 9 0
BBX 7 22 1 0
BITMAP
30
30
30
7C
FE
C6
C6
C0
C0
C0
C0
C0
C0
C6
C6
C6
EC
7C
30
30
30
30
ENDCHAR
STARTCHAR 00A3
ENCODING 163
SWIDTH 312 0
DWIDTH 10 0
BBX 9 22 0 0
BITMAP
1F00
3F80
3180
3180
3180
3000
3000
3000
3000
FE00
FE00
3000
3000
3000
3000
3000
3000
3000
3000
3000
3F80
1F80
ENDCHAR
STARTCHAR 00A4
ENCODING 164
SWIDTH 593 0
DWIDTH 19 0
BBX 15 15 2 6
BITMAP
8002
47C4
3C78
3018
2008
600C
4004
4004
4004
600C
2008
3018
3C78
47C4
8002
ENDCHAR
STARTCHAR 00A5
ENCODING 165
SWIDTH 375 0
DWIDTH 12 0
BBX 8 22 2 0
BITMAP
C3
C3
C3
C3
C3
C3
C3
C3
C3
C3
C3
C3
C3
63
66
FF
18
18
FF
18
18
18
ENDCHAR
STARTCHAR 00A6
ENCODING 166
SWIDTH 500 0
DWIDTH 16 0
BBX 1 29 7 -6
BITMAP
80
80
80
80
80
80
80
80
80
80
80
80
00
00
00
00
00
80
80
80
80
80
80
80
80
80
80
80
80
ENDCHAR
STARTCHAR 00A7
ENCODING 167
SWIDTH 281 0
DWIDTH 9 0
BBX 7 22 1 0
BITMAP
7E
FE
C0
C0
C0
C0
FC
FE
C6
C6
C6
C6
6E
7E
3E
06
C6
C6
C6
6C
7C
18
ENDCHAR
STARTCHAR 00A8
ENCODING 168
SWIDTH 500 0
DWIDTH 16 0
BBX 5 2 5 18
BITMAP
D8
D8
ENDCHAR
STARTCHAR 00A9
ENCODING 169
SWIDTH 281 0
DWIDTH 9 0
BBX 7 12 1 10
BITMAP
FE
82
FA
CA
C2
C2
CA
CA
CA
B2
82
FE
ENDCHAR
STARTCHAR 00AA
ENCODING 170
SWIDTH 187 0
DWIDTH 6 0
BBX 4 9 1 12
BITMAP
F0
10
10
F0
90
90
90
D0
60
ENDCHAR
STARTCHAR 00AB
ENCODING 171
SWIDTH 281 0
DWIDTH 9 0
BBX 7 9 1 4
BITMAP
02
24
24
4C
D8
48
44
24
02
ENDCHAR
STARTCHAR 00AC
ENCODING 172
SWIDTH 843 0
DWIDTH 27 0
BBX 18 8 4 6
BITMAP
FFFFC0
000040
000040
000040
000040
000040
000040
000040
ENDCHAR
STARTCHAR 00AD
ENCODING 173
SWIDTH 187 0
DWIDTH 6 0
BBX 4 2 1 7
BITMAP
F0
F0
ENDCHAR
STARTCHAR 00AE
ENCODING 174
SWIDTH 281 0
DWIDTH 9 0
BBX 7 12 1 10
BITMAP
FE
82
BE
A6
A6
A6
BA
A6
A6
A6
82
FE
ENDCHAR
STARTCHAR 00AF
ENCODING 175
SWIDTH 500 0
DWIDTH 16 0
BBX 5 1 5 19
BITMAP
F8
ENDCHAR
STARTCHAR 00B0
ENCODING 176
SWIDTH 312 0
DWIDTH 10 0
BBX 7 8 1 14
BITMAP
38
64
C2
82
82
C2
64
38
ENDCHAR
STARTCHAR 00B1
ENCODING 177
SWIDTH 843 0
DWIDTH 27 0
BBX 19 17 4 1
BITMAP
004000
004000
004000
004000
004000
004000
FFFFE0
004000
004000
004000
004000
004000
000000
000000
000000
000000
FFFFE0
ENDCHAR
STARTCHAR 00B2
ENCODING 178
SWIDTH 218 0
DWIDTH 7 0
BBX 5 13 1 8
BITMAP
F8
88
88
88
08
10
20
20
40
80
80
80
F8
ENDCHAR
STARTCHAR 00B3
ENCODING 179
SWIDTH 218 0
DWIDTH 7 0
BBX 5 14 1 8
BITMAP
F0
88
88
08
08
08
78
08
08
08
88
88
D0
70
ENDCHAR
STARTCHAR 00B4
ENCODING 180
SWIDTH 500 0
DWIDTH 16 0
BBX 3 4 7 16
BITMAP
60
60
C0
80
ENDCHAR
STARTCHAR 00B5
ENCODING 181
SWIDTH 531 0
DWIDTH 17 0
BBX 17 23 -2 -6
BITMAP
040180
0C0180
0C0100
0C0300
0C0300
080300
180300
180200
180600
180600
180600
300600
380C00
381C00
3C1C00
2FFF00
67C700
600000
600000
600000
400000
C00000
C00000
ENDCHAR
STARTCHAR 00B6
ENCODING 182
SWIDTH 437 0
DWIDTH 14 0
BBX 11 27 1 -5
BITMAP
0FE0
3FE0
7F60
7F60
FF60
FF60
FF60
FF60
FF60
7F60
7F60
3F60
0F60
0360
0360
0360
0360
0360
0360
0360
0360
0360
0360
0360
0360
0360
0360
ENDCHAR
STARTCHAR 00B7
ENCODING 183
SWIDTH 218 0
DWIDTH 7 0
BBX 5 5 1 7
BITMAP
20
70
F8
70
20
ENDCHAR
STARTCHAR 00B8
ENCODING 184
SWIDTH 500 0
DWIDTH 16 0
BBX 3 4 6 -5
BITMAP
E0
40
40
40
ENDCHAR
STARTCHAR 00B9
ENCODING 185
SWIDTH 156 0
DWIDTH 5 0
BBX 2 14 1 8
BITMAP
C0
40
40
40
40
40
40
40
40
40
40
40
40
40
ENDCHAR
STARTCHAR 00BA
ENCODING 186
SWIDTH 187 0
DWIDTH 6 0
BBX 4 9 1 12
BITMAP
F0
90
90
90
90
90
90
90
60
ENDCHAR
STARTCHAR 00BB
ENCODING 187
SWIDTH 281 0
DWIDTH 9 0
BBX 8 9 0 4
BITMAP
08
48
64
22
33
26
44
48
80
ENDCHAR
STARTCHAR 00BC
ENCODING 188
SWIDTH 437 0
DWIDTH 14 0
BBX 14 22 -1 0
BITMAP
7018
1010
1030
1020
1060
1040
10C0
1180
1180
1388
1388
1688
1688
0C88
0C88
1888
1888
3088
307C
6008
6008
C008
ENDCHAR
STARTCHAR 00BD
ENCODING 189
SWIDTH 437 0
DWIDTH 14 0
BBX 13 22 -1 0
BITMAP
7010
1030
1020
1060
1040
10C0
1080
1180
1100
1300
1278
1648
1448
0C08
0808
1810
1030
3020
2040
6040
6040
C078
ENDCHAR
STARTCHAR 00BE
ENCODING 190
SWIDTH 500 0
DWIDTH 16 0
BBX 15 22 1 0
BITMAP
780C
8808
8818
0810
0820
7820
0840
08C0
0880
89C4
8944
DB44
7244
0644
0444
0C44
0844
1844
103E
2004
2004
4004
ENDCHAR
STARTCHAR 00BF
ENCODING 191
SWIDTH 312 0
DWIDTH 10 0
BBX 8 22 1 -6
BITMAP
08
08
1C
08
08
00
1C
1C
1C
1C
1C
7C
F8
C0
C0
C0
C3
C3
C3
C3
FF
7E
ENDCHAR
STARTCHAR 00C0
ENCODING 192
SWIDTH 312 0
DWIDTH 10 0
BBX 8 27 1 0
BITMAP
70
30
18
08
00
7E
FF
C3
C3
C3
C3
C3
C3
C3
C3
C3
C3
FF
FF
C3
C3
C3
C3
C3
C3
C3
C3
ENDCHAR
STARTCHAR 00C1
ENCODING 193
SWIDTH 312 0
DWIDTH 10 0
BBX 8 27 1 0
BITMAP
0C
0C
18
10
00
7E
FF
C3
C3
C3
C3
C3
C3
C3
C3
C3
C3
FF
FF
C3
C3
C3
C3
C3
C3
C3
C3
ENDCHAR
STARTCHAR 00C2
ENCODING 194
SWIDTH 312 0
DWIDTH 10 0
BBX 7 27 1 0
BITMAP
10
38
28
00
00
7C
FE
C6
C6
C6
C6
C6
C6
C6
C6
C6
C6
FE
FE
C6
C6
C6
C6
C6
C6
C6
C6
ENDCHAR
STARTCHAR 00C3
ENCODING 195
SWIDTH 312 0
DWIDTH 10 0
BBX 7 26 1 0
BITMAP
10
3C
C8
00
7C
FE
C2
C2
C2
C2
C2
C2
C2
C2
C2
C2
FE
FE
C2
C2
C2
C2
C2
C2
C2
C2
ENDCHAR
STARTCHAR 00C4
ENCODING 196
SWIDTH 312 0
DWIDTH 10 0
BBX 8 26 1 1
BITMAP
66
66
00
00
7E
FF
C3
C3
C3
C3
C3
C3
C3
C3
C3
C3
FF
FF
C3
C3
C3
C3
C3
C3
C3
C3
ENDCHAR
STARTCHAR 00C5
ENCODING 197
SWIDTH 343 0
DWIDTH 11 0
BBX 9 28 1 0
BITMAP
1C00
2200
4200
2200
1C00
0000
7F00
7F80
C180
C180
C180
C180
C180
C180
C180
C180
C180
C180
FF80
FF80
C180
C180
C180
C180
C180
C180
C180
C180
ENDCHAR
STARTCHAR 00C6
ENCODING 198
SWIDTH 468 0
DWIDTH 15 0
BBX 12 22 1 0
BITMAP
7FF0
7FF0
C300
C300
C300
C300
C300
C300
C300
C3F0
C3F0
C300
FF00
FF00
C300
C300
C300
C300
C300
C300
C3F0
C1F0
ENDCHAR
STARTCHAR 00C7
ENCODING 199
SWIDTH 343 0
DWIDTH 11 0
BBX 8 27 1 -6
BITMAP
7E
FF
C3
C3
C3
C3
C0
C0
C0
C0
C0
C0
C0
C3
C3
C3
C3
C3
63
66
3E
1C
00
00
1C
18
18
ENDCHAR
STARTCHAR 00C8
ENCODING 200
SWIDTH 250 0
DWIDTH 8 0
BBX 6 27 1 0
BITMAP
70
30
10
08
00
7C
7C
C0
C0
C0
C0
C0
C0
C0
FC
FC
C0
C0
C0
C0
C0
C0
C0
C0
C0
FC
7C
ENDCHAR
STARTCHAR 00C9
ENCODING 201
SWIDTH 250 0
DWIDTH 8 0
BBX 6 27 1 0
BITMAP
1C
18
30
20
00
7C
7C
C0
C0
C0
C0
C0
C0
C0
FC
FC
C0
C0
C0
C0
C0
C0
C0
C0
C0
FC
7C
ENDCHAR
STARTCHAR 00CA
ENCODING 202
SWIDTH 250 0
DWIDTH 8 0
BBX 6 27 1 0
BITMAP
10
38
48
00
00
7C
7C
C0
C0
C0
C0
C0
C0
C0
FC
FC
C0
C0
C0
C0
C0
C0
C0
C0
C0
FC
7C
ENDCHAR
STARTCHAR 00CB
ENCODING 203
SWIDTH 250 0
DWIDTH 8 0
BBX 6 26 1 1
BITMAP
CC
CC
00
00
7C
7C
C0
C0
C0
C0
C0
C0
C0
FC
FC
C0
C0
C0
C0
C0
C0
C0
C0
C0
FC
7C
ENDCHAR
STARTCHAR 00CC
ENCODING 204
SWIDTH 125 0
DWIDTH 4 0
BBX 3 27 0 0
BITMAP
C0
60
20
00
00
60
60
60
60
60
60
60
60
60
60
60
60
60
60
60
60
60
60
60
60
60
60
ENDCHAR
STARTCHAR 00CD
ENCODING 205
SWIDTH 125 0
DWIDTH 4 0
BBX 3 27 1 0
BITMAP
60
40
80
00
00
C0
C0
C0
C0
C0
C0
C0
C0
C0
C0
C0
C0
C0
C0
C0
C0
C0
C0
C0
C0
C0
C0
ENDCHAR
STARTCHAR 00CE
ENCODING 206
SWIDTH 125 0
DWIDTH 4 0
BBX 4 27 1 0
BITMAP
40
60
90
00
00
60
60
60
60
60
60
60
60
60
60
60
60
60
60
60
60
60
60
60
60
60
60
ENDCHAR
STARTCHAR 00CF
ENCODING 207
SWIDTH 125 0
DWIDTH 4 0
BBX 6 26 -1 1
BITMAP
CC
CC
00
00
30
30
30
30
30
30
30
30
30
30
30
30
30
30
30
30
30
30
30
30
30
30
ENDCHAR
STARTCHAR 00D0
ENCODING 208
SWIDTH 312 0
DWIDTH 10 0
BBX 9 22 0 0
BITMAP
7F00
7F80
6180
6180
6180
6180
6180
6180
6180
6180
F980
6180
6180
6180
6180
6180
6180
6180
2180
3300
3F00
1E00
ENDCHAR
STARTCHAR 00D1
ENCODING 209
SWIDTH 312 0
DWIDTH 10 0
BBX 8 26 1 0
BITMAP
10
3E
4C
00
C3
E3
E3
F3
D3
DB
CB
CF
CF
C7
C7
C3
C3
C3
C3
C3
C3
C3
C3
C3
C3
C3
ENDCHAR
STARTCHAR 00D2
ENCODING 210
SWIDTH 312 0
DWIDTH 10 0
BBX 8 27 1 0
BITMAP
30
18
08
00
00
7E
7F
C3
C3
C3
C3
C3
C3
C3
C3
C3
C3
C3
C3
C3
C3
C3
C3
63
66
3E
1C
ENDCHAR
STARTCHAR 00D3
ENCODING 211
SWIDTH 312 0
DWIDTH 10 0
BBX 8 27 1 0
BITMAP
0C
08
18
10
00
7E
7F
C3
C3
C3
C3
C3
C3
C3
C3
C3
C3
C3
C3
C3
C3
C3
C3
63
66
3E
1C
ENDCHAR
STARTCHAR 00D4
ENCODING 212
SWIDTH 312 0
DWIDTH 10 0
BBX 8 27 1 0
BITMAP
10
18
24
00
00
7E
7F
C3
C3
C3
C3
C3
C3
C3
C3
C3
C3
C3
C3
C3
C3
C3
C3
66
66
3C
18
ENDCHAR
STARTCHAR 00D5
ENCODING 213
SWIDTH 312 0
DWIDTH 10 0
BBX 8 26 1 0
BITMAP
10
3E
4C
00
7E
7F
C3
C3
C3
C3
C3
C3
C3
C3
C3
C3
C3
C3
C3
C3
C3
C3
63
66
3E
1C
ENDCHAR
STARTCHAR 00D6
ENCODING 214
SWIDTH 312 0
DWIDTH 10 0
BBX 8 26 1 1
BITMAP
66
66
00
00
7E
7F
C3
C3
C3
C3
C3
C3
C3
C3
C3
C3
C3
C3
C3
C3
C3
C3
63
66
3E
1C
ENDCHAR
STARTCHAR 00D7
ENCODING 215
SWIDTH 843 0
DWIDTH 27 0
BBX 17 17 5 1
BITMAP
800080
400100
200200
100400
080800
041000
022000
014000
008000
014000
022000
041000
080800
100400
200200
400100
800080
ENDCHAR
STARTCHAR 00D8
ENCODING 216
SWIDTH 312 0
DWIDTH 10 0
BBX 8 22 1 0
BITMAP
7E
7F
C3
C3
C3
C3
C3
C7
CF
CF
DB
F3
E3
C3
C3
C3
C3
C3
63
66
3E
1C
ENDCHAR
STARTCHAR 00D9
ENCODING 217
SWIDTH 312 0
DWIDTH 10 0
BBX 8 27 1 0
BITMAP
30
18
08
00
00
C3
C3
C3
C3
C3
C3
C3
C3
C3
C3
C3
C3
C3
C3
C3
C3
C3
C3
C3
C3
7F
7F
ENDCHAR
STARTCHAR 00DA
ENCODING 218
SWIDTH 312 0
DWIDTH 10 0
BBX 8 27 1 0
BITMAP
0C
0C
18
10
00
C3
C3
C3
C3
C3
C3
C3
C3
C3
C3
C3
C3
C3
C3
C3
C3
C3
C3
C3
C3
7F
7F
ENDCHAR
STARTCHAR 00DB
ENCODING 219
SWIDTH 312 0
DWIDTH 10 0
BBX 8 27 1 0
BITMAP
08
18
24
00
00
C3
C3
C3
C3
C3
C3
C3
C3
C3
C3
C3
C3
C3
C3
C3
C3
C3
C3
C3
C3
7F
7F
ENDCHAR
STARTCHAR 00DC
ENCODING 220
SWIDTH 312 0
DWIDTH 10 0
BBX 8 26 1 1
BITMAP
66
66
00
00
C3
C3
C3
C3
C3
C3
C3
C3
C3
C3
C3
C3
C3
C3
C3
C3
C3
C3
C3
C3
7F
7F
ENDCHAR
STARTCHAR 00DD
ENCODING 221
SWIDTH 312 0
DWIDTH 10 0
BBX 8 27 1 0
BITMAP
0C
08
10
00
00
C3
C3
C3
C3
C3
C3
C3
C3
C3
C3
C3
C3
C3
63
66
3C
18
18
18
18
18
18
ENDCHAR
STARTCHAR 00DE
ENCODING 222
SWIDTH 312 0
DWIDTH 10 0
BBX 8 22 1 0
BITMAP
C0
C0
C0
C0
FE
FF
C3
C3
C3
C3
C3
C3
C3
C3
C6
C6
FC
F8
C0
C0
C0
C0
ENDCHAR
STARTCHAR 00DF
ENCODING 223
SWIDTH 375 0
DWIDTH 12 0
BBX 8 22 2 0
BITMAP
7E
FF
C3
C3
C3
C3
C3
C3
DE
DE
C3
C3
C3
C3
C3
C3
C3
C3
C3
C6
DE
DC
ENDCHAR
STARTCHAR 00E0
ENCODING 224
SWIDTH 281 0
DWIDTH 9 0
BBX 7 20 1 0
BITMAP
70
30
10
00
00
FC
FE
06
06
06
7E
FE
C6
C6
C6
C6
C6
6C
7C
38
ENDCHAR
STARTCHAR 00E1
ENCODING 225
SWIDTH 281 0
DWIDTH 9 0
BBX 6 20 1 0
BITMAP
18
10
20
20
00
F8
FC
04
04
04
7C
FC
C4
C4
C4
C4
C4
EC
78
30
ENDCHAR
STARTCHAR 00E2
ENCODING 226
SWIDTH 281 0
DWIDTH 9 0
BBX 6 20 1 1
BITMAP
10
38
48
00
00
F8
FC
04
04
04
7C
FC
C4
C4
C4
C4
C4
E4
78
30
ENDCHAR
STARTCHAR 00E3
ENCODING 227
SWIDTH 281 0
DWIDTH 9 0
BBX 6 20 1 0
BITMAP
20
7C
18
00
00
F8
FC
04
04
04
7C
FC
C4
C4
C4
C4
C4
EC
78
30
ENDCHAR
STARTCHAR 00E4
ENCODING 228
SWIDTH 281 0
DWIDTH 9 0
BBX 7 19 1 1
BITMAP
EE
EE
00
00
FC
FE
06
06
06
7E
FE
C6
C6
C6
C6
C6
6C
7C
38
ENDCHAR
STARTCHAR 00E5
ENCODING 229
SWIDTH 312 0
DWIDTH 10 0
BBX 7 20 1 0
BITMAP
18
64
3C
00
00
FC
FE
06
06
06
7E
FE
C6
C6
C6
C6
C6
64
7C
38
ENDCHAR
STARTCHAR 00E6
ENCODING 230
SWIDTH 468 0
DWIDTH 15 0
BBX 12 15 1 0
BITMAP
FFE0
FFF0
0630
0630
0630
7FF0
FFF0
C600
C600
C630
C630
C630
6F60
7FE0
39C0
ENDCHAR
STARTCHAR 00E7
ENCODING 231
SWIDTH 250 0
DWIDTH 8 0
BBX 7 20 1 -5
BITMAP
7C
FE
C6
C6
C0
C0
C0
C0
C0
C6
C6
C6
6C
7C
38
00
38
30
10
10
ENDCHAR
STARTCHAR 00E8
ENCODING 232
SWIDTH 281 0
DWIDTH 9 0
BBX 7 20 1 0
BITMAP
70
30
10
00
00
7C
FE
C6
C6
C6
FE
FE
C0
C0
C6
C6
C6
6C
7C
38
ENDCHAR
STARTCHAR 00E9
ENCODING 233
SWIDTH 281 0
DWIDTH 9 0
BBX 6 20 1 0
BITMAP
18
10
20
20
00
78
FC
C4
C4
C4
FC
FC
C0
C0
C4
C4
C4
EC
78
30
ENDCHAR
STARTCHAR 00EA
ENCODING 234
SWIDTH 281 0
DWIDTH 9 0
BBX 6 20 1 1
BITMAP
10
38
48
00
00
78
FC
C4
C4
C4
FC
FC
C0
C0
C4
C4
C4
EC
78
30
ENDCHAR
STARTCHAR 00EB
ENCODING 235
SWIDTH 281 0
DWIDTH 9 0
BBX 7 19 1 1
BITMAP
EE
EE
00
00
7C
FE
C6
C6
C6
FE
FE
C0
C0
C6
C6
C6
6C
7C
38
ENDCHAR
STARTCHAR 00EC
ENCODING 236
SWIDTH 156 0
DWIDTH 5 0
BBX 3 20 0 0
BITMAP
C0
60
20
00
00
60
60
60
60
60
60
60
60
60
60
60
60
60
60
60
ENDCHAR
STARTCHAR 00ED
ENCODING 237
SWIDTH 156 0
DWIDTH 5 0
BBX 3 20 1 0
BITMAP
60
40
80
00
00
C0
C0
C0
C0
C0
C0
C0
C0
C0
C0
C0
C0
C0
C0
C0
ENDCHAR
STARTCHAR 00EE
ENCODING 238
SWIDTH 156 0
DWIDTH 5 0
BBX 4 20 1 1
BITMAP
40
E0
90
00
00
60
60
60
60
60
60
60
60
60
60
60
60
60
60
60
ENDCHAR
STARTCHAR 00EF
ENCODING 239
SWIDTH 156 0
DWIDTH 5 0
BBX 6 19 0 1
BITMAP
CC
CC
00
00
30
30
30
30
30
30
30
30
30
30
30
30
30
30
30
ENDCHAR
STARTCHAR 00F0
ENCODING 240
SWIDTH 281 0
DWIDTH 9 0
BBX 7 23 1 0
BITMAP
64
FC
38
3C
6C
46
06
06
7E
FE
C6
C6
C6
C6
C6
C6
C6
C6
C6
C6
6C
7C
38
ENDCHAR
STARTCHAR 00F1
ENCODING 241
SWIDTH 281 0
DWIDTH 9 0
BBX 7 20 1 0
BITMAP
20
7C
98
00
00
FC
FE
C6
C6
C6
C6
C6
C6
C6
C6
C6
C6
C6
C6
C6
ENDCHAR
STARTCHAR 00F2
ENCODING 242
SWIDTH 281 0
DWIDTH 9 0
BBX 7 20 1 0
BITMAP
70
30
10
00
00
7C
FE
C6
C6
C6
C6
C6
C6
C6
C6
C6
C6
6C
7C
38
ENDCHAR
STARTCHAR 00F3
ENCODING 243
SWIDTH 281 0
DWIDTH 9 0
BBX 7 20 1 0
BITMAP
1C
18
30
20
00
7C
FE
C6
C6
C6
C6
C6
C6
C6
C6
C6
C6
6C
7C
38
ENDCHAR
STARTCHAR 00F4
ENCODING 244
SWIDTH 281 0
DWIDTH 9 0
BBX 7 20 1 1
BITMAP
10
38
44
00
00
7C
FE
C6
C6
C6
C6
C6
C6
C6
C6
C6
C6
6C
7C
38
ENDCHAR
STARTCHAR 00F5
ENCODING 245
SWIDTH 281 0
DWIDTH 9 0
BBX 7 20 1 0
BITMAP
20
7C
98
00
00
7C
FE
C6
C6
C6
C6
C6
C6
C6
C6
C6
C6
6C
7C
38
ENDCHAR
STARTCHAR 00F6
ENCODING 246
SWIDTH 281 0
DWIDTH 9 0
BBX 6 19 1 1
BITMAP
EC
EC
00
00
78
FC
C4
C4
C4
C4
C4
C4
C4
C4
C4
C4
EC
78
30
ENDCHAR
STARTCHAR 00F7
ENCODING 247
SWIDTH 843 0
DWIDTH 27 0
BBX 19 13 4 3
BITMAP
00E000
00E000
00E000
000000
000000
000000
FFFFE0
000000
000000
000000
00E000
00E000
00E000
ENDCHAR
STARTCHAR 00F8
ENCODING 248
SWIDTH 281 0
DWIDTH 9 0
BBX 7 15 1 0
BITMAP
7C
FE
C6
C6
CE
DE
D6
F6
E6
C6
C6
C6
6C
7C
38
ENDCHAR
STARTCHAR 00F9
ENCODING 249
SWIDTH 281 0
DWIDTH 9 0
BBX 7 20 1 0
BITMAP
70
30
10
08
00
C6
C6
C6
C6
C6
C6
C6
C6
C6
C6
C6
C6
C6
FE
7E
ENDCHAR
STARTCHAR 00FA
ENCODING 250
SWIDTH 281 0
DWIDTH 9 0
BBX 7 20 1 0
BITMAP
1C
18
30
20
00
C6
C6
C6
C6
C6
C6
C6
C6
C6
C6
C6
C6
C6
FE
7E
ENDCHAR
STARTCHAR 00FB
ENCODING 251
SWIDTH 281 0
DWIDTH 9 0
BBX 7 20 1 1
BITMAP
10
38
44
00
00
C6
C6
C6
C6
C6
C6
C6
C6
C6
C6
C6
C6
C6
FE
7E
ENDCHAR
STARTCHAR 00FC
ENCODING 252
SWIDTH 281 0
DWIDTH 9 0
BBX 6 19 1 1
BITMAP
CC
CC
00
00
CC
CC
CC
CC
CC
CC
CC
CC
CC
CC
CC
CC
CC
FC
7C
ENDCHAR
STARTCHAR 00FD
ENCODING 253
SWIDTH 281 0
DWIDTH 9 0
BBX 6 26 1 -6
BITMAP
18
10
20
20
00
CC
CC
CC
CC
CC
CC
CC
CC
CC
CC
CC
CC
CC
FC
7C
0C
0C
0C
0C
0C
0C
ENDCHAR
STARTCHAR 00FE
ENCODING 254
SWIDTH 281 0
DWIDTH 9 0
BBX 7 28 1 -6
BITMAP
C0
C0
C0
C0
C0
C0
C0
FC
FE
C6
C6
C6
C6
C6
C6
C6
C6
C6
CE
DC
F8
E0
C0
C0
C0
C0
C0
C0
ENDCHAR
STARTCHAR 00FF
ENCODING 255
SWIDTH 281 0
DWIDTH 9 0
BBX 7 25 1 -5
BITMAP
E6
E6
00
00
C6
C6
C6
C6
C6
C6
C6
C6
C6
C6
C6
C6
C6
FE
7E
06
06
06
06
06
06
ENDCHAR
STARTCHAR 0131
ENCODING 305
SWIDTH 156 0
DWIDTH 5 0
BBX 2 15 1 0
BITMAP
C0
C0
C0
C0
C0
C0
C0
C0
C0
C0
C0
C0
C0
C0
C0
ENDCHAR
STARTCHAR 0141
ENCODING 321
SWIDTH 250 0
DWIDTH 8 0
BBX 7 22 0 0
BITMAP
60
60
60
60
60
60
60
60
68
78
70
E0
E0
60
60
60
60
60
60
60
3E
3E
ENDCHAR
STARTCHAR 0142
ENCODING 322
SWIDTH 125 0
DWIDTH 4 0
BBX 4 22 0 0
BITMAP
60
60
60
60
60
60
60
60
60
70
70
60
E0
E0
60
60
60
60
60
60
60
60
ENDCHAR
STARTCHAR 0152
ENCODING 338
SWIDTH 468 0
DWIDTH 15 0
BBX 12 22 1 0
BITMAP
7FF0
7FF0
C300
C300
C300
C300
C300
C300
C300
C3F0
C3F0
C300
C300
C300
C300
C300
C300
C300
6300
6700
3FF0
1DF0
ENDCHAR
STARTCHAR 0153
ENCODING 339
SWIDTH 468 0
DWIDTH 15 0
BBX 12 15 1 0
BITMAP
7FE0
FFF0
C630
C630
C630
C7F0
C7F0
C600
C600
C630
C630
C630
6760
7FE0
39C0
ENDCHAR
STARTCHAR 0160
ENCODING 352
SWIDTH 312 0
DWIDTH 10 0
BBX 8 27 1 1
BITMAP
24
18
00
00
00
7E
7F
C3
C3
C3
C3
C0
C0
C0
FE
7F
03
03
03
C3
C3
C3
C3
62
66
3C
18
ENDCHAR
STARTCHAR 0161
ENCODING 353
SWIDTH 281 0
DWIDTH 9 0
BBX 6 20 1 1
BITMAP
44
38
10
00
00
7C
FC
C0
C0
C0
F8
7C
04
04
04
C4
C4
EC
78
30
ENDCHAR
STARTCHAR 0178
ENCODING 376
SWIDTH 312 0
DWIDTH 10 0
BBX 8 26 1 1
BITMAP
66
66
00
00
C3
C3
C3
C3
C3
C3
C3
C3
C3
C3
C3
C3
C3
62
66
3C
18
18
18
18
18
18
ENDCHAR
STARTCHAR 017D
ENCODING 381
SWIDTH 312 0
DWIDTH 10 0
BBX 8 27 1 1
BITMAP
24
18
10
00
00
FF
FF
03
03
06
06
06
0C
0C
18
18
18
30
30
60
60
60
C0
C0
C0
FF
FF
ENDCHAR
STARTCHAR 017E
ENCODING 382
SWIDTH 250 0
DWIDTH 8 0
BBX 7 20 1 1
BITMAP
44
38
10
00
00
FE
FE
06
06
0C
08
18
30
30
60
60
C0
C0
FE
FE
ENDCHAR
STARTCHAR 0192
ENCODING 402
SWIDTH 218 0
DWIDTH 7 0
BBX 6 28 0 -5
BITMAP
08
1C
18
30
30
30
30
30
FC
FC
30
30
30
30
30
30
30
30
30
30
30
30
30
30
30
60
E0
40
ENDCHAR
STARTCHAR 02C6
ENCODING 710
SWIDTH 500 0
DWIDTH 16 0
BBX 5 3 5 17
BITMAP
20
70
C8
ENDCHAR
STARTCHAR 02C7
ENCODING 711
SWIDTH 500 0
DWIDTH 16 0
BBX 5 3 5 17
BITMAP
88
70
20
ENDCHAR
STARTCHAR 02C9
ENCODING 713
SWIDTH 500 0
DWIDTH 16 0
BBX 5 1 5 19
BITMAP
F8
ENDCHAR
STARTCHAR 02D8
ENCODING 728
SWIDTH 500 0
DWIDTH 16 0
BBX 7 4 4 18
BITMAP
82
82
7C
38
ENDCHAR
STARTCHAR 02D9
ENCODING 729
SWIDTH 500 0
DWIDTH 16 0
BBX 2 2 7 18
BITMAP
C0
C0
ENDCHAR
STARTCHAR 02DA
ENCODING 730
SWIDTH 500 0
DWIDTH 16 0
BBX 4 3 6 17
BITMAP
60
90
F0
ENDCHAR
STARTCHAR 02DB
ENCODING 731
SWIDTH 500 0
DWIDTH 16 0
BBX 3 4 6 -5
BITMAP
40
40
40
E0
ENDCHAR
STARTCHAR 02DC
ENCODING 732
SWIDTH 500 0
DWIDTH 16 0
BBX 6 4 5 16
BITMAP
20
7C
98
10
ENDCHAR
STARTCHAR 02DD
ENCODING 733
SWIDTH 500 0
DWIDTH 16 0
BBX 7 4 6 16
BITMAP
76
66
CC
88
ENDCHAR
STARTCHAR 03A9
ENCODING 937
SWIDTH 593 0
DWIDTH 19 0
BBX 15 23 2 0
BITMAP
03C0
0FF0
1878
3018
600C
600C
600C
C006
C006
C006
C006
C006
C006
C006
C004
4004
600C
600C
2018
3018
1830
FC7E
FC7E
ENDCHAR
STARTCHAR 03BC
ENCODING 956
SWIDTH 531 0
DWIDTH 17 0
BBX 17 23 -2 -6
BITMAP
040180
0C0180
0C0100
0C0300
0C0300
080300
180300
180200
180600
180600
180600
300600
380C00
381C00
3C1C00
2FFF00
67C700
600000
600000
600000
400000
C00000
C00000
ENDCHAR
STARTCHAR 03C0
ENCODING 960
SWIDTH 468 0
DWIDTH 15 0
BBX 14 16 1 0
BITMAP
7FFC
FFFC
1860
1860
1860
1860
1860
1860
1860
1860
1860
1860
1860
1860
1878
183C
ENDCHAR
STARTCHAR 2013
ENCODING 8211
SWIDTH 250 0
DWIDTH 8 0
BBX 7 2 0 9
BITMAP
FE
FE
ENDCHAR
STARTCHAR 2014
ENCODING 8212
SWIDTH 312 0
DWIDTH 10 0
BBX 10 2 0 7
BITMAP
FFC0
FFC0
ENDCHAR
STARTCHAR 2018
ENCODING 8216
SWIDTH 125 0
DWIDTH 4 0
BBX 2 4 0 18
BITMAP
40
40
40
C0
ENDCHAR
STARTCHAR 2019
ENCODING 8217
SWIDTH 125 0
DWIDTH 4 0
BBX 2 4 1 17
BITMAP
C0
C0
80
80
ENDCHAR
STARTCHAR 201A
ENCODING 8218
SWIDTH 125 0
DWIDTH 4 0
BBX 2 5 1 -3
BITMAP
C0
C0
80
80
80
ENDCHAR
STARTCHAR 201C
ENCODING 8220
SWIDTH 218 0
DWIDTH 7 0
BBX 5 4 0 18
BITMAP
48
48
48
D8
ENDCHAR
STARTCHAR 201D
ENCODING 8221
SWIDTH 218 0
DWIDTH 7 0
BBX 5 4 1 17
BITMAP
D8
D8
90
90
ENDCHAR
STARTCHAR 201E
ENCODING 8222
SWIDTH 218 0
DWIDTH 7 0
BBX 5 5 1 -3
BITMAP
D8
D8
90
90
90
ENDCHAR
STARTCHAR 2020
ENCODING 8224
SWIDTH 218 0
DWIDTH 7 0
BBX 6 14 0 8
BITMAP
30
30
30
FC
FC
30
30
30
30
30
30
30
30
30
ENDCHAR
STARTCHAR 2021
ENCODING 8225
SWIDTH 218 0
DWIDTH 7 0
BBX 6 14 0 8
BITMAP
30
30
30
FC
FC
30
30
30
FC
FC
30
30
30
30
ENDCHAR
STARTCHAR 2022
ENCODING 8226
SWIDTH 500 0
DWIDTH 16 0
BBX 9 10 3 5
BITMAP
0800
1C00
3E00
7F00
FF80
7F00
3E00
3E00
1C00
0800
ENDCHAR
STARTCHAR 2026
ENCODING 8230
SWIDTH 531 0
DWIDTH 17 0
BBX 15 5 1 0
BITMAP
4104
4104
E38E
4104
4104
ENDCHAR
STARTCHAR 2030
ENCODING 8240
SWIDTH 937 0
DWIDTH 30 0
BBX 27 22 1 0
BITMAP
7C060000
EE040000
C60C0000
C6080000
C6180000
C6100000
C6300000
C6200000
C6600000
C6400000
6CCF87C0
7C98CC60
3998CC60
0118CC60
0318CC60
0218CC60
0618CC60
0418CC60
0418CC60
080C8640
080F87C0
10070380
ENDCHAR
STARTCHAR 2039
ENCODING 8249
SWIDTH 156 0
DWIDTH 5 0
BBX 4 8 1 4
BITMAP
10
20
20
40
C0
40
60
20
ENDCHAR
STARTCHAR 203A
ENCODING 8250
SWIDTH 156 0
DWIDTH 5 0
BBX 4 9 1 4
BITMAP
80
40
40
20
30
20
40
80
80
ENDCHAR
STARTCHAR 2044
ENCODING 8260
SWIDTH 93 0
DWIDTH 3 0
BBX 12 23 -4 0
BITMAP
0030
0020
0060
0040
00C0
0080
0180
0100
0100
0300
0200
0600
0400
0C00
0800
1800
1000
3000
2000
6000
4000
C000
8000
ENDCHAR
STARTCHAR 20AC
ENCODING 8364
SWIDTH 375 0
DWIDTH 12 0
BBX 10 22 0 0
BITMAP
1F80
3FC0
30C0
30C0
30C0
30C0
3000
FE00
FE00
3000
FE00
FE00
3000
3000
30C0
30C0
30C0
30C0
18C0
1980
0F80
0700
ENDCHAR
STARTCHAR 2113
ENCODING 8467
SWIDTH 375 0
DWIDTH 12 0
BBX 9 24 1 0
BITMAP
0700
0F80
1980
1980
1980
1980
1900
1B00
1B00
1E00
1E00
1C00
1800
1800
3800
7800
D800
1800
1800
1800
1800
1880
0F80
0E00
ENDCHAR
STARTCHAR 2122
ENCODING 8482
SWIDTH 531 0
DWIDTH 17 0
BBX 14 10 1 12
BITMAP
FB04
228C
2274
2224
2224
2224
2224
2224
2224
2224
ENDCHAR
STARTCHAR 2126
ENCODING 8486
SWIDTH 593 0
DWIDTH 19 0
BBX 15 23 2 0
BITMAP
03C0
0FF0
1878
3018
600C
600C
600C
C006
C006
C006
C006
C006
C006
C006
C004
4004
600C
600C
2018
3018
1830
FC7E
FC7E
ENDCHAR
STARTCHAR 212E
ENCODING 8494
SWIDTH 593 0
DWIDTH 19 0
BBX 16 16 1 1
BITMAP
07E0
1838
200C
600E
600E
E00F
E00F
FFFF
E000
E000
E000
6000
6004
200C
1838
07E0
ENDCHAR
STARTCHAR 2202
ENCODING 8706
SWIDTH 437 0
DWIDTH 14 0
BBX 12 23 1 0
BITMAP
07C0
07E0
0060
0030
0030
0030
0030
07B0
0FF0
1870
3030
7030
6020
6020
C060
C060
C040
C0C0
C080
C180
E100
7E00
3C00
ENDCHAR
STARTCHAR 2206
ENCODING 8710
SWIDTH 500 0
DWIDTH 16 0
BBX 14 23 1 0
BITMAP
0300
0700
0700
0580
0580
0D80
0C80
08C0
18C0
18C0
1860
1060
3060
3060
3030
2030
6030
6010
6018
C018
C018
FFFC
FFFC
ENDCHAR
STARTCHAR 220F
ENCODING 8719
SWIDTH 562 0
DWIDTH 18 0
BBX 13 31 2 -8
BITMAP
FFF8
FFF8
C018
C018
C018
C018
C018
C018
C018
C018
C018
C018
C018
C018
C018
C018
C018
C018
C018
C018
C018
C018
C018
C018
C018
C018
C018
C018
C018
C018
C018
ENDCHAR
STARTCHAR 2211
ENCODING 8721
SWIDTH 500 0
DWIDTH 16 0
BBX 13 30 1 -7
BITMAP
FFF8
7FF8
6000
2000
3000
1800
1800
0C00
0C00
0600
0200
0300
0100
0180
00C0
0080
0180
0100
0300
0600
0600
0C00
0800
1800
1000
3000
6000
4000
FFF8
FFF8
ENDCHAR
STARTCHAR 2212
ENCODING 8722
SWIDTH 843 0
DWIDTH 27 0
BBX 18 1 4 8
BITMAP
FFFFC0
ENDCHAR
STARTCHAR 2215
ENCODING 8725
SWIDTH 93 0
DWIDTH 3 0
BBX 12 23 -4 0
BITMAP
0030
0020
0060
0040
00C0
0080
0180
0100
0100
0300
0200
0600
0400
0C00
0800
1800
1000
3000
2000
6000
4000
C000
8000
ENDCHAR
STARTCHAR 2219
ENCODING 8729
SWIDTH 218 0
DWIDTH 7 0
BBX 5 5 1 7
BITMAP
20
70
F8
70
20
ENDCHAR
STARTCHAR 221A
ENCODING 8730
SWIDTH 375 0
DWIDTH 12 0
BBX 11 24 1 0
BITMAP
0060
0040
0040
0040
00C0
00C0
00C0
0080
0080
0080
2180
E180
E100
2100
3100
3300
1300
1B00
1A00
1A00
0A00
0E00
0E00
0400
ENDCHAR
STARTCHAR 221E
ENCODING 8734
SWIDTH 593 0
DWIDTH 19 0
BBX 16 8 1 6
BITMAP
3E3C
6346
C1C3
C183
C183
E3C7
7E7E
3C3C
ENDCHAR
STARTCHAR 222B
ENCODING 8747
SWIDTH 406 0
DWIDTH 13 0
BBX 8 30 2 -6
BITMAP
07
0F
0C
18
18
18
18
18
18
18
18
18
18
18
18
18
18
18
18
18
18
18
18
18
18
18
18
18
F0
E0
ENDCHAR
STARTCHAR 2248
ENCODING 8776
SWIDTH 843 0
DWIDTH 27 0
BBX 17 10 5 5
BITMAP
3E0180
C3C300
807E00
000000
000000
000000
3E0100
630100
80C600
807C00
ENDCHAR
STARTCHAR 2260
ENCODING 8800
SWIDTH 843 0
DWIDTH 27 0
BBX 16 19 5 0
BITMAP
0008
0010
0010
0030
0020
0060
FFFF
00C0
0080
0080
0100
0100
0200
FFFF
0400
0400
0800
1800
1000
ENDCHAR
STARTCHAR 2264
ENCODING 8804
SWIDTH 843 0
DWIDTH 27 0
BBX 16 18 5 0
BITMAP
0001
0007
003C
00E0
0380
1C00
7000
F000
1C00
0780
00E0
0038
000F
0001
0000
0000
0000
FFFF
ENDCHAR
STARTCHAR 2265
ENCODING 8805
SWIDTH 843 0
DWIDTH 27 0
BBX 16 18 5 0
BITMAP
8000
E000
3C00
0700
01E0
0038
000E
0007
0038
00E0
0700
1C00
F000
8000
0000
0000
0000
FFFF
ENDCHAR
STARTCHAR 25CA
ENCODING 9674
SWIDTH 406 0
DWIDTH 13 0
BBX 9 23 2 0
BITMAP
0800
1C00
1C00
1400
3600
2200
2200
6300
4100
C180
8180
8080
8180
C180
4100
6300
6200
2200
3600
1400
1C00
1C00
0800
ENDCHAR
STARTCHAR FB01
ENCODING 64257
SWIDTH 312 0
DWIDTH 10 0
BBX 8 23 0 0
BITMAP
0B
1B
33
32
30
30
30
30
FB
FB
33
33
33
33
33
33
33
33
33
33
33
33
33
ENDCHAR
STARTCHAR FB02
ENCODING 64258
SWIDTH 312 0
DWIDTH 10 0
BBX 8 22 0 0
BITMAP
0B
1B
33
33
33
33
33
FB
FB
33
33
33
33
33
33
33
33
33
33
33
33
33
ENDCHAR
ENDFONT
